<?xml version="1.0" encoding="UTF-8"?>
<level>
  <owner>stolbitsa</owner>
  <repo>uletay</repo>
  <version>v1.0.7</version>
  <next number="1" owner="stolbitsa" repo="inca-roads-1"/>
  <readme>
    <ru>f49ee633aa5fe3e9cddeb156e5087d138605228db306be348e4ff319fab5e9a6</ru>
    <en>f49ee633aa5fe3e9cddeb156e5087d138605228db306be348e4ff319fab5e9a6</en>
  </readme>
  <license>b1b99f5538d1fd3702219bff50c665196dfa42f6ee755c37fe41a6178d6bc6e5</license>
  <exercise number="1">
    <scale>minor</scale>
    <bpm>80</bpm>
    <lowestNote>18</lowestNote>
    <tonalities>4</tonalities>
    <video name="11-uletay-1.mp4" size="1936977" type="video/mp4" volume="1">f7035c037fc5242037fe987d48d2243143a8dd550b7967b13d546a64e73f2dc1</video>
    <notes>
      <note number="1" values="48" ticks="276" durationTicks="25" ppq="96" velocity="0.441"/>
      <note number="2" values="48" ticks="324" durationTicks="45" ppq="96" velocity="0.434"/>
      <note number="3" values="188" ticks="372" durationTicks="186" ppq="96" velocity="0.491"/>
    </notes>
  </exercise>
  <exercise number="2">
    <scale>minor</scale>
    <bpm>80</bpm>
    <lowestNote>18</lowestNote>
    <tonalities>4</tonalities>
    <video name="11-uletay-2.mp4" size="1371122" type="video/mp4" volume="1">07e71b0da010aeae0c51d9761ed7daa848603a8ce0809eca43451ba0e9bf7929</video>
    <notes>
      <note number="1" values="78" ticks="40" durationTicks="25" ppq="96" velocity="0.441"/>
      <note number="2" values="188" ticks="63" durationTicks="23" ppq="96" velocity="0.434"/>
      <note number="3" values="68" ticks="87" durationTicks="48" ppq="96" velocity="0.491"/>
      <note number="4" values="58" ticks="136" durationTicks="23" ppq="96" velocity="0.449"/>
      <note number="5" values="48" ticks="160" durationTicks="23" ppq="96" velocity="0.451"/>
      <note number="6" values="58" ticks="183" durationTicks="24" ppq="96" velocity="0.471"/>
      <note number="7" values="68" ticks="208" durationTicks="22" ppq="96" velocity="0.626"/>
      <note number="8" values="78" ticks="232" durationTicks="95" ppq="96" velocity="0.626"/>
    </notes>
  </exercise>
  <exercise number="3">
    <scale>minor</scale>
    <bpm>80</bpm>
    <lowestNote>18</lowestNote>
    <tonalities>4</tonalities>
    <video name="11-uletay-3.mp4" size="1025698" type="video/mp4" volume="1">9f6a04e9f2db5edd13e7b0b8d012241b37aa300623ca7c541bb9b1c50e54ac5c</video>
    <notes>
      <note number="1" values="188" ticks="52" durationTicks="45" ppq="96" velocity="0.441"/>
      <note number="2" values="58" ticks="100" durationTicks="47" ppq="96" velocity="0.434"/>
      <note number="3" values="48" ticks="147" durationTicks="23" ppq="96" velocity="0.491"/>
      <note number="4" values="38" ticks="171" durationTicks="23" ppq="96" velocity="0.449"/>
      <note number="5" values="18" ticks="198" durationTicks="48" ppq="96" velocity="0.451"/>
    </notes>
  </exercise>
  <exercise number="4">
    <scale>minor</scale>
    <bpm>80</bpm>
    <lowestNote>18</lowestNote>
    <tonalities>4</tonalities>
    <video name="11-uletay-4.mp4" size="1826873" type="video/mp4" volume="1">248a8974c8c9be734b3cfd221bdaeb30672042dc3aa17dababeba7532d90c73a</video>
    <notes>
      <note number="1" values="18" ticks="57" durationTicks="48" ppq="96" velocity="0.441"/>
      <note number="2" values="48" ticks="105" durationTicks="144" ppq="96" velocity="0.434"/>
      <note number="3" values="58" ticks="250" durationTicks="48" ppq="96" velocity="0.491"/>
      <note number="4" values="48" ticks="297" durationTicks="49" ppq="96" velocity="0.449"/>
      <note number="5" values="38" ticks="346" durationTicks="23" ppq="96" velocity="0.451"/>
      <note number="6" values="28" ticks="370" durationTicks="24" ppq="96" velocity="0.471"/>
      <note number="7" values="38" ticks="395" durationTicks="22" ppq="96" velocity="0.434"/>
      <note number="8" values="28" ticks="417" durationTicks="23" ppq="96" velocity="0.414"/>
      <note number="9" values="18" ticks="442" durationTicks="48" ppq="96" velocity="0.446"/>
    </notes>
  </exercise>
  <exercise number="5">
    <scale>minor</scale>
    <bpm>80</bpm>
    <lowestNote>18</lowestNote>
    <tonalities>4</tonalities>
    <video name="11-uletay-5.mp4" size="1756228" type="video/mp4" volume="1">e97e11dbc92b060760112542ca150c22187c1374d8618e0015eb868bd39fa132</video>
    <notes>
      <note number="1" values="28" ticks="57" durationTicks="48" ppq="96" velocity="0.441"/>
      <note number="2" values="38" ticks="105" durationTicks="48" ppq="96" velocity="0.434"/>
      <note number="3" values="58" ticks="153" durationTicks="48" ppq="96" velocity="0.491"/>
      <note number="4" values="48" ticks="203" durationTicks="34" ppq="96" velocity="0.449"/>
      <note number="5" values="48" ticks="251" durationTicks="45" ppq="96" velocity="0.451"/>
      <note number="6" values="188" ticks="299" durationTicks="140" ppq="96" velocity="0.471"/>
    </notes>
  </exercise>
  <exercise number="6">
    <scale>minor</scale>
    <bpm>80</bpm>
    <lowestNote>18</lowestNote>
    <tonalities>4</tonalities>
    <video name="11-uletay-6.mp4" size="1984996" type="video/mp4" volume="1">3b30f08e5db5a8ffbcd6e630df91652e20c5ebad5a562446974e1cf21603bcfa</video>
    <notes>
      <note number="1" values="78" ticks="76" durationTicks="25" ppq="96" velocity="0.441"/>
      <note number="2" values="188" ticks="101" durationTicks="23" ppq="96" velocity="0.434"/>
      <note number="3" values="68" ticks="124" durationTicks="48" ppq="96" velocity="0.491"/>
      <note number="4" values="58" ticks="171" durationTicks="23" ppq="96" velocity="0.449"/>
      <note number="5" values="48" ticks="196" durationTicks="23" ppq="96" velocity="0.451"/>
      <note number="6" values="58" ticks="220" durationTicks="24" ppq="96" velocity="0.471"/>
      <note number="7" values="68" ticks="244" durationTicks="22" ppq="96" velocity="0.461"/>
      <note number="8" values="78" ticks="268" durationTicks="95" ppq="96" velocity="0.476"/>
    </notes>
  </exercise>
  <exercise number="7">
    <scale>minor</scale>
    <bpm>80</bpm>
    <lowestNote>18</lowestNote>
    <tonalities>4</tonalities>
    <video name="11-uletay-7.mp4" size="1762642" type="video/mp4" volume="1">aacfe7959e8bdc8d5ef009b4c5a8052102de9434fb50abf285f96ba8df5387a8</video>
    <notes>
      <note number="1" values="188" ticks="106" durationTicks="47" ppq="96" velocity="0.441"/>
      <note number="2" values="58" ticks="154" durationTicks="49" ppq="96" velocity="0.434"/>
      <note number="3" values="48" ticks="202" durationTicks="24" ppq="96" velocity="0.491"/>
      <note number="4" values="38" ticks="227" durationTicks="23" ppq="96" velocity="0.449"/>
      <note number="5" values="18" ticks="249" durationTicks="39" ppq="96" velocity="0.451"/>
      <note number="6" values="18" ticks="297" durationTicks="49" ppq="96" velocity="0.471"/>
      <note number="7" values="48" ticks="348" durationTicks="142" ppq="96" velocity="0.459"/>
      <note number="8" values="58" ticks="491" durationTicks="49" ppq="96" velocity="0.474"/>
    </notes>
  </exercise>
  <exercise number="8">
    <scale>minor</scale>
    <bpm>80</bpm>
    <lowestNote>18</lowestNote>
    <tonalities>4</tonalities>
    <video name="11-uletay-8.mp4" size="1833369" type="video/mp4" volume="1">9cff221c87788d152be7a9c77b09eb29e5563f22be2bb496a2cbef213aa268cb</video>
    <notes>
      <note number="1" values="48" ticks="60" durationTicks="47" ppq="96" velocity="0.441"/>
      <note number="2" values="38" ticks="107" durationTicks="26" ppq="96" velocity="0.434"/>
      <note number="3" values="28" ticks="132" durationTicks="24" ppq="96" velocity="0.491"/>
      <note number="4" values="38" ticks="157" durationTicks="23" ppq="96" velocity="0.449"/>
      <note number="5" values="28" ticks="179" durationTicks="24" ppq="96" velocity="0.451"/>
      <note number="6" values="18" ticks="204" durationTicks="144" ppq="96" velocity="0.471"/>
    </notes>
  </exercise>
</level>
